<?xml version="1.0" standalone="no"?>
<!DOCTYPE svg PUBLIC "-//W3C//DTD SVG 1.1//EN" "http://www.w3.org/Graphics/SVG/1.1/DTD/svg11.dtd" >
<svg xmlns="http://www.w3.org/2000/svg">
<metadata></metadata>
<defs>
<font id="eausans_book" horiz-adv-x="350" >
<font-face units-per-em="1350" ascent="1050" descent="-300" />
<missing-glyph horiz-adv-x="500" />
<glyph unicode=" " />
<glyph unicode="!" horiz-adv-x="380" d="M255 130v-130h-130v130h130zM120 1000h140l-25 -750h-90z" />
<glyph unicode="&#x22;" horiz-adv-x="570" d="M135 1000h135l-86 -259h-86zM355 1000h135l-86 -259h-86z" />
<glyph unicode="#" horiz-adv-x="770" d="M447 478l49 242h-172l-50 -242h173zM740 805v-85h-159l-50 -242h144v-85h-160l-40 -193h-85l39 193h-173l-38 -193h-86l40 193h-142v85h158l51 242h-145v85h161l40 195h85l-40 -195h173l40 195h84l-38 -195h141z" />
<glyph unicode="$" horiz-adv-x="670" d="M512 297q0 54 -38 94t-99 58v-317q65 13 101 59.5t36 105.5zM284 593l21 -7v281q-64 -13 -95.5 -54t-31.5 -88q0 -96 106 -132zM627 297q0 -103 -67 -176.5t-185 -86.5v-134h-70v133q-158 9 -260 111l69 70q33 -33 84 -56.5t107 -28.5v344l-57 19q-185 62 -185 233 q0 86 60.5 155.5t181.5 84.5v135h70v-132q145 -6 250 -112l-70 -70q-79 79 -180 86v-309l32 -11q47 -16 83 -35.5t69 -49t50.5 -72.5t17.5 -98z" />
<glyph unicode="%" horiz-adv-x="1175" d="M436 725q0 91 -41.5 148t-105.5 57t-105.5 -57t-41.5 -148t41.5 -148t105.5 -57t105.5 57t41.5 148zM1033 275q0 91 -41.5 148t-105.5 57t-105.5 -57t-41.5 -148t41.5 -148t105.5 -57t105.5 57t41.5 148zM528 725q0 -128 -68 -206.5t-171 -78.5t-171 78.5t-68 206.5 t68 206.5t171 78.5t171 -78.5t68 -206.5zM870 1050h85l-650 -1100h-85zM1125 275q0 -128 -68 -206.5t-171 -78.5t-171 78.5t-68 206.5t68 206.5t171 78.5t171 -78.5t68 -206.5z" />
<glyph unicode="&#x26;" horiz-adv-x="920" d="M645 186l-303 303q-81 -46 -116.5 -98.5t-35.5 -130.5t60 -129t148 -51q152 0 247 106zM510 800q0 48 -36.5 86.5t-93.5 38.5t-93.5 -38.5t-36.5 -86.5q0 -52 25 -89.5t96 -107.5q76 45 107.5 90.5t31.5 106.5zM778 202l202 -202h-149l-112 112q-128 -127 -319 -127 q-149 0 -237 75.5t-88 198.5q0 178 199 292q-76 76 -105 128t-29 121q0 82 64 148.5t176 66.5q111 0 173 -66t62 -149q0 -85 -43.5 -143t-133.5 -117l258 -257q44 106 44 267h110q0 -209 -72 -348z" />
<glyph unicode="'" d="M130 1000h135l-86 -259h-86z" />
<glyph unicode="(" horiz-adv-x="450" d="M360 -5l-90 -45q-170 283 -170 550t170 550l90 -45q-75 -128 -115 -244.5t-40 -260.5q0 -259 155 -505z" />
<glyph unicode=")" horiz-adv-x="450" d="M350 500q0 -267 -170 -550l-90 45q75 128 115 244.5t40 260.5q0 259 -155 505l90 45q170 -283 170 -550z" />
<glyph unicode="*" horiz-adv-x="554" d="M483 876l21 -66l-171 -56l106 -145l-56 -41l-106 145l-106 -145l-56 41l106 145l-171 56l21 66l171 -56v180h70v-180z" />
<glyph unicode="+" horiz-adv-x="750" d="M690 535v-90h-270v-270h-90v270h-270v90h270v270h90v-270h270z" />
<glyph unicode="," d="M120 130h135l-86 -259h-86z" />
<glyph unicode="-" horiz-adv-x="445" d="M385 420v-90h-325v90h325z" />
<glyph unicode="." d="M240 130v-130h-130v130h130z" />
<glyph unicode="/" horiz-adv-x="400" d="M300 1050h75l-275 -1100h-75z" />
<glyph unicode="0" horiz-adv-x="880" d="M680 500q0 189 -64 299.5t-176 110.5t-176 -110.5t-64 -299.5t64 -299.5t176 -110.5t176 110.5t64 299.5zM805 500q0 -230 -99.5 -372.5t-265.5 -142.5t-265.5 142.5t-99.5 372.5t99.5 372.5t265.5 142.5t265.5 -142.5t99.5 -372.5z" />
<glyph unicode="1" horiz-adv-x="520" d="M375 1000v-1000h-115v868q-28 -28 -89.5 -54.5t-125.5 -35.5v100q59 8 128 46t107 76h95z" />
<glyph unicode="2" horiz-adv-x="750" d="M686 105v-105h-611v95q269 268 362 396.5t93 238.5q0 74 -47 127t-128 53q-64 0 -109 -23t-91 -69l-77 77q120 120 277 120q136 0 218 -81.5t82 -203.5q0 -119 -96.5 -256.5t-328.5 -368.5h456z" />
<glyph unicode="3" horiz-adv-x="770" d="M695 280q0 -121 -96 -208t-249 -87q-91 0 -164 32.5t-116 87.5l77 77q45 -45 91.5 -68.5t111.5 -23.5q101 0 160.5 56t59.5 134t-59.5 134t-160.5 56h-105v104h105q91 0 145.5 48t54.5 120t-54.5 120t-145.5 48q-64 0 -109.5 -23.5t-90.5 -68.5l-77 77q120 120 277 120 q146 0 235.5 -76.5t89.5 -196.5q0 -86 -54.5 -144.5t-115.5 -75.5q78 -20 134 -92.5t56 -149.5z" />
<glyph unicode="4" horiz-adv-x="840" d="M200 355h331v475zM790 355v-105h-149v-250h-110v250h-461v100l461 650h110v-645h149z" />
<glyph unicode="5" horiz-adv-x="770" d="M706 310q0 -138 -95.5 -231.5t-249.5 -93.5q-91 0 -164 32.5t-116 87.5l77 77q45 -45 91.5 -68.5t111.5 -23.5q100 0 160 66t60 154t-60 154t-160 66q-89 0 -154 -52l-102 51v471h551v-105h-436v-294q66 34 141 34q153 0 249 -96.5t96 -228.5z" />
<glyph unicode="6" horiz-adv-x="880" d="M675 310q0 88 -60 154t-161 66q-100 0 -159.5 -66t-59.5 -154t59.5 -154t160.5 -66q100 0 160 66t60 154zM800 310q0 -138 -95 -231.5t-250 -93.5q-122 0 -205.5 68.5t-121.5 181.5t-38 265q0 235 102 375t293 140q86 0 161 -35.5t124 -84.5l-77 -77q-92 92 -208 92 q-137 0 -206 -108.5t-69 -301.5q24 47 90.5 91t154.5 44q153 0 249 -96.5t96 -228.5z" />
<glyph unicode="7" horiz-adv-x="750" d="M690 1000v-95q-140 -185 -234 -399.5t-161 -505.5h-130q77 300 166.5 511t218.5 384h-506v105h646z" />
<glyph unicode="8" horiz-adv-x="840" d="M640 280q0 78 -59.5 134t-160.5 56t-160.5 -56t-59.5 -134t59.5 -134t160.5 -56t160.5 56t59.5 134zM620 742q0 72 -54.5 120t-145.5 48t-145.5 -48t-54.5 -120t54.5 -120t145.5 -48t145.5 48t54.5 120zM765 280q0 -121 -96 -208t-249 -87t-249 87t-96 208q0 76 55.5 149 t130.5 92q-58 18 -112 77t-54 144q0 120 89.5 196.5t235.5 76.5t235.5 -76.5t89.5 -196.5q0 -86 -54.5 -144.5t-113.5 -75.5q76 -20 132 -93t56 -149z" />
<glyph unicode="9" horiz-adv-x="880" d="M645 690q0 88 -59.5 154t-160.5 66q-100 0 -160 -66t-60 -154t60 -154t161 -66q100 0 159.5 66t59.5 154zM790 500q0 -235 -102 -375t-293 -140q-86 0 -161 35.5t-124 84.5l77 77q92 -92 208 -92q137 0 206 108.5t69 301.5q-24 -47 -90.5 -91t-154.5 -44 q-153 0 -249 96.5t-96 228.5q0 138 96 231t249 94q92 0 163 -38.5t114.5 -108.5t65.5 -162.5t22 -205.5z" />
<glyph unicode=":" d="M240 130v-130h-130v130h130zM240 720v-130h-130v130h130z" />
<glyph unicode=";" d="M120 130h135l-86 -259h-86zM240 720v-130h-130v130h130z" />
<glyph unicode="&#x3c;" horiz-adv-x="390" d="M196 400l140 -280h-116l-140 280l140 280h116z" />
<glyph unicode="=" horiz-adv-x="750" d="M690 410v-90h-630v90h630zM690 660v-90h-630v90h630z" />
<glyph unicode="&#x3e;" horiz-adv-x="390" d="M170 680l140 -280l-140 -280h-116l140 280l-140 280h116z" />
<glyph unicode="?" horiz-adv-x="685" d="M360 130v-130h-130v130h130zM615 745q0 -74 -27 -124t-83 -106l-73 -73q-50 -50 -66 -87t-16 -105h-110q0 147 92 239l73 73q45 45 65 83t20 100q0 64 -50 114.5t-125 50.5q-68 0 -112 -24.5t-86 -67.5l-77 77q58 57 122.5 88.5t152.5 31.5q130 0 215 -79t85 -191z" />
<glyph unicode="@" horiz-adv-x="1140" d="M729 495q16 87 -24 145.5t-112 58.5q-75 0 -133.5 -58t-74.5 -146q-15 -87 24.5 -145.5t111.5 -58.5t132.5 58.5t75.5 145.5zM1091 510q-11 -124 -93 -210.5t-185 -86.5q-51 0 -78.5 31.5t-27.5 87.5q-22 -55 -87 -88t-125 -33q-102 0 -162.5 80.5t-39.5 203.5 q22 123 111 203.5t191 80.5q56 0 105 -29t61 -75l16 92h88l-73 -412q-13 -72 47 -72q63 0 112 69t57 168q16 187 -93.5 306t-302.5 119q-125 0 -230.5 -65.5t-166 -166.5t-70.5 -213q-17 -193 93 -319t300 -126q172 0 309 126l52 -57q-165 -144 -373 -144q-147 0 -259.5 71 t-168.5 193t-46 271q6 97 50 188t115 161.5t172.5 113t214.5 42.5q233 0 370 -144t117 -366z" />
<glyph unicode="A" horiz-adv-x="880" d="M263 360h354l-177 496zM505 1000l370 -1000h-130l-91 255h-428l-91 -255h-130l370 1000h130z" />
<glyph unicode="B" horiz-adv-x="850" d="M665 290q0 76 -56 120.5t-159 44.5h-200v-350h200q215 0 215 185zM635 735q0 76 -39 118t-133 42h-213v-335h180q92 0 148.5 47t56.5 128zM790 285q0 -135 -85.5 -210t-254.5 -75h-320v1000h335q144 0 219.5 -69t75.5 -177q0 -94 -60.5 -162t-159.5 -82q110 -3 180 -67 t70 -158z" />
<glyph unicode="C" horiz-adv-x="870" d="M757 182l77 -77q-120 -120 -304 -120q-208 0 -336.5 144t-128.5 371t128.5 371t336.5 144q184 0 304 -120l-77 -77q-49 49 -101.5 70.5t-125.5 21.5q-149 0 -244.5 -112.5t-95.5 -297.5t95.5 -297.5t244.5 -112.5q73 0 125.5 21.5t101.5 70.5z" />
<glyph unicode="D" horiz-adv-x="970" d="M780 500q0 98 -30.5 175t-83.5 124.5t-122 71.5t-149 24h-145v-790h145q80 0 149 24t122 71.5t83.5 124.5t30.5 175zM905 500q0 -122 -41.5 -219t-112.5 -157.5t-162 -92t-194 -31.5h-265v1000h265q107 0 198.5 -31.5t161.5 -92t110 -157.5t40 -219z" />
<glyph unicode="E" horiz-adv-x="730" d="M650 105v-105h-520v1000h510v-105h-390v-335h380v-105h-380v-350h400z" />
<glyph unicode="F" horiz-adv-x="700" d="M650 1000v-105h-400v-335h390v-105h-390v-455h-120v1000h520z" />
<glyph unicode="G" horiz-adv-x="940" d="M859 525v-460q-144 -80 -319 -80q-217 0 -346 143.5t-129 371.5t129 371.5t346 143.5q194 0 314 -120l-77 -77q-92 92 -237 92q-156 0 -253 -112t-97 -298t97 -298t253 -112q115 0 199 43v287h-234v105h354z" />
<glyph unicode="H" horiz-adv-x="960" d="M830 1000v-1000h-120v455h-460v-455h-120v1000h120v-440h460v440h120z" />
<glyph unicode="I" horiz-adv-x="380" d="M250 1000v-1000h-120v1000h120z" />
<glyph unicode="J" horiz-adv-x="640" d="M510 1000v-750q0 -126 -77.5 -198t-190.5 -72q-145 0 -237 126l76 76q29 -42 72 -67t89 -25q67 0 107.5 43t40.5 117v750h120z" />
<glyph unicode="K" horiz-adv-x="815" d="M370 510l440 -510h-153l-407 490v-490h-120v1000h120v-470l395 470h150z" />
<glyph unicode="L" horiz-adv-x="650" d="M650 105v-105h-520v1000h120v-895h400z" />
<glyph unicode="M" horiz-adv-x="1210" d="M1080 1000v-1000h-120v858l-286 -858h-138l-286 858v-858h-120v1000h189l286 -858l286 858h189z" />
<glyph unicode="N" horiz-adv-x="970" d="M840 1000v-1001h-170l-420 841v-840h-120v1000h170l420 -840v840h120z" />
<glyph unicode="O" horiz-adv-x="1020" d="M830 500q0 183 -92.5 296.5t-227.5 113.5t-227.5 -113.5t-92.5 -296.5t92.5 -296.5t227.5 -113.5t227.5 113.5t92.5 296.5zM955 500q0 -225 -125 -370t-320 -145t-320 145t-125 370t125 370t320 145t320 -145t125 -370z" />
<glyph unicode="P" horiz-adv-x="800" d="M635 717q0 79 -50.5 128.5t-144.5 49.5h-190v-355h190q94 0 144.5 49.5t50.5 127.5zM760 718q0 -128 -86 -205.5t-234 -77.5h-190v-435h-120v1000h310q147 0 233.5 -79.5t86.5 -202.5z" />
<glyph unicode="Q" horiz-adv-x="1020" d="M830 500q0 183 -92.5 296.5t-227.5 113.5t-227.5 -113.5t-92.5 -296.5t92.5 -296.5t227.5 -113.5t227.5 113.5t92.5 296.5zM826 128l174 -87l-80 -81l-181 91q-102 -66 -229 -66q-195 0 -320 145t-125 370t125 370t320 145t320 -145t125 -370q0 -229 -129 -372z" />
<glyph unicode="R" horiz-adv-x="850" d="M635 735q0 76 -39 118t-133 42h-213v-335h180q92 0 148.5 47t56.5 128zM727 363l73 -363h-128l-68 343q-10 52 -44 82t-89 30h-221v-455h-120v1000h335q144 0 219.5 -69t75.5 -177q0 -86 -49 -152.5t-128 -89.5q116 -13 144 -149z" />
<glyph unicode="S" horiz-adv-x="745" d="M695 275q0 -132 -90 -213.5t-240 -81.5q-101 0 -182 36.5t-133 88.5l77 77q97 -97 238 -97q93 0 149 53t56 137q0 118 -159 170l-141 47q-200 66 -200 258q0 48 20 94.5t58 86.5t102.5 64.5t144.5 24.5q176 0 300 -124l-77 -78q-97 97 -223 97q-96 0 -148 -49.5 t-52 -115.5q0 -109 118 -148l142 -47q240 -79 240 -280z" />
<glyph unicode="T" horiz-adv-x="750" d="M740 1000v-100h-305v-900h-120v900h-305v100h730z" />
<glyph unicode="U" horiz-adv-x="960" d="M830 1000v-695q0 -160 -99 -242.5t-251 -82.5t-251 82.5t-99 242.5v695h120v-695q0 -105 64 -162.5t166 -57.5t166 57.5t64 162.5v695h120z" />
<glyph unicode="V" horiz-adv-x="850" d="M710 1000h130l-345 -1000h-140l-345 1000h130l285 -855z" />
<glyph unicode="W" horiz-adv-x="1258" d="M1108 1000h130l-260 -1000h-147l-202 807l-202 -807h-147l-260 1000h130l204 -816l204 816h142l204 -816z" />
<glyph unicode="X" horiz-adv-x="888" d="M512 516l351 -516h-145l-274 422l-274 -422h-145l351 516l-331 484h146l253 -391l253 391h146z" />
<glyph unicode="Y" horiz-adv-x="752" d="M657 1000h145l-366 -538v-462h-120v462l-366 538h145l281 -432z" />
<glyph unicode="Z" horiz-adv-x="700" d="M650 105v-105h-600v105l460 790h-450v105h580v-105l-460 -790h470z" />
<glyph unicode="[" horiz-adv-x="420" d="M360 45v-95h-240v1100h240v-95h-130v-910h130z" />
<glyph unicode="\" horiz-adv-x="400" d="M100 1050l275 -1100h-75l-275 1100h75z" />
<glyph unicode="]" horiz-adv-x="420" d="M300 1050v-1100h-240v95h130v910h-130v95h240z" />
<glyph unicode="^" horiz-adv-x="450" d="M285 1020l130 -230h-106l-84 144l-84 -144h-106l130 230h120z" />
<glyph unicode="_" horiz-adv-x="490" d="M490 80v-80h-490v80h490z" />
<glyph unicode="`" horiz-adv-x="450" d="M235 1020l115 -230h-86l-164 230h135z" />
<glyph unicode="a" horiz-adv-x="760" d="M530 285v45h-140q-97 0 -146 -41t-49 -94q0 -50 36 -80t99 -30q49 0 89.5 22t63.5 54.5t35 65t12 58.5zM640 500v-500h-110v120q-22 -60 -82 -97.5t-143 -37.5q-94 0 -159.5 61t-65.5 149q0 44 17.5 83.5t54 73t101.5 53.5t152 20h125v75q0 57 -46 98.5t-119 41.5 q-111 0 -180 -69l-70 70q99 99 250 99q125 0 200 -67.5t75 -172.5z" />
<glyph unicode="b" horiz-adv-x="835" d="M660 360q0 123 -60.5 199t-154.5 76q-92 0 -153.5 -76.5t-61.5 -198.5t61.5 -198.5t153.5 -76.5t153.5 76.5t61.5 198.5zM775 360q0 -167 -93 -271t-222 -104q-70 0 -137 35t-93 90v-110h-110v1000h110v-395q25 58 92.5 94t137.5 36q129 0 222 -104t93 -271z" />
<glyph unicode="c" horiz-adv-x="660" d="M550 149l70 -70q-44 -44 -103 -69t-117 -25q-144 0 -242 106t-98 269t98 269t242 106q58 0 117 -25t103 -69l-70 -70q-64 64 -150 64q-98 0 -161.5 -77.5t-63.5 -197.5t63.5 -197.5t161.5 -77.5q86 0 150 64z" />
<glyph unicode="d" horiz-adv-x="835" d="M605 360q0 122 -61.5 198.5t-153.5 76.5q-94 0 -154.5 -76t-60.5 -199q0 -122 61.5 -198.5t153.5 -76.5t153.5 76.5t61.5 198.5zM715 1000v-1000h-110v110q-26 -55 -93 -90t-137 -35q-129 0 -222 104t-93 271t93 271t222 104q70 0 137.5 -36t92.5 -94v395h110z" />
<glyph unicode="e" horiz-adv-x="740" d="M180 425h381q-14 103 -65.5 156.5t-120.5 53.5q-74 0 -127.5 -56.5t-67.5 -153.5zM680 360v-35h-504q9 -110 72 -175t162 -65q101 0 165 64l70 -70q-94 -94 -235 -94q-153 0 -251.5 104t-98.5 271q0 163 91 269t224 106q134 0 219.5 -102t85.5 -273z" />
<glyph unicode="f" horiz-adv-x="500" d="M450 1000v-95q-33 10 -61 10q-109 0 -109 -95v-100h165v-95h-165v-625h-110v625h-140v95h140v120q0 69 50.5 119.5t139.5 50.5q54 0 90 -10z" />
<glyph unicode="g" horiz-adv-x="835" d="M605 370q0 112 -62.5 188.5t-152.5 76.5t-152.5 -76.5t-62.5 -188.5q0 -116 60.5 -190.5t154.5 -74.5q91 0 153 75t62 190zM715 720v-670q0 -136 -92.5 -225.5t-252.5 -89.5q-166 0 -270 104l70 70q74 -74 200 -74q100 0 167.5 59.5t67.5 155.5v90q-27 -59 -88.5 -97 t-141.5 -38q-128 0 -221.5 102.5t-93.5 262.5t93.5 262.5t221.5 102.5q79 0 140.5 -37t89.5 -93v115h110z" />
<glyph unicode="h" horiz-adv-x="840" d="M720 460v-460h-110v460q0 85 -44 130t-121 45q-97 0 -156 -72t-59 -203v-360h-110v1000h110v-400q22 60 83 97.5t147 37.5q120 0 190 -74t70 -201z" />
<glyph unicode="i" d="M230 720v-720h-110v720h110zM235 1000v-120h-120v120h120z" />
<glyph unicode="j" horiz-adv-x="360" d="M240 720v-810q0 -69 -50.5 -119.5t-139.5 -50.5q-54 0 -90 10v95q33 -10 61 -10q109 0 109 95v790h110zM245 1000v-120h-120v120h120z" />
<glyph unicode="k" horiz-adv-x="720" d="M350 370l384 -370h-159l-345 345v-345h-110v1000h110v-610l330 330h150z" />
<glyph unicode="l" d="M230 1000v-1000h-110v1000h110z" />
<glyph unicode="m" horiz-adv-x="1220" d="M1100 460v-460h-110v460q0 175 -140 175q-74 0 -129.5 -74t-55.5 -201v-360h-110v460q0 175 -140 175q-74 0 -129.5 -74t-55.5 -201v-360h-110v720h110v-120q59 135 205 135q90 0 141.5 -46t70.5 -105q72 151 223 151q109 0 169.5 -73.5t60.5 -201.5z" />
<glyph unicode="n" horiz-adv-x="840" d="M720 460v-460h-110v460q0 85 -44 130t-121 45q-97 0 -156 -72t-59 -203v-360h-110v720h110v-120q22 60 83 97.5t147 37.5q120 0 190 -74t70 -201z" />
<glyph unicode="o" horiz-adv-x="780" d="M605 360q0 123 -60.5 199t-154.5 76q-92 0 -153.5 -76.5t-61.5 -198.5t61.5 -198.5t153.5 -76.5t153.5 76.5t61.5 198.5zM720 360q0 -168 -95.5 -271.5t-234.5 -103.5t-234.5 103.5t-95.5 271.5t95.5 271.5t234.5 103.5t234.5 -103.5t95.5 -271.5z" />
<glyph unicode="p" horiz-adv-x="835" d="M660 360q0 123 -60.5 199t-154.5 76q-92 0 -153.5 -76.5t-61.5 -198.5t61.5 -198.5t153.5 -76.5t153.5 76.5t61.5 198.5zM775 360q0 -167 -93 -271t-222 -104q-70 0 -137 35t-93 90v-360h-110v970h110v-115q25 58 92.5 94t137.5 36q129 0 222 -104t93 -271z" />
<glyph unicode="q" horiz-adv-x="835" d="M605 360q0 122 -61.5 198.5t-153.5 76.5q-94 0 -154.5 -76t-60.5 -199q0 -122 61.5 -198.5t153.5 -76.5t153.5 76.5t61.5 198.5zM715 720v-970h-110v360q-26 -55 -93 -90t-137 -35q-129 0 -222 104t-93 271t93 271t222 104q70 0 137.5 -36t92.5 -94v115h110z" />
<glyph unicode="r" horiz-adv-x="500" d="M470 735v-105q-240 0 -240 -270v-360h-110v720h110v-110q33 67 90.5 96t149.5 29z" />
<glyph unicode="s" horiz-adv-x="605" d="M555 189q0 -88 -67.5 -148.5t-192.5 -60.5q-73 0 -138.5 29t-106.5 70l70 70q28 -28 74.5 -48.5t100.5 -20.5q67 0 106 30t39 79q0 75 -108 111l-108 36q-164 54 -164 199q0 84 66 144.5t184 60.5q136 0 235 -99l-70 -70q-69 69 -165 69q-63 0 -99 -32t-36 -73 q0 -36 24 -59t76 -41l108 -36q172 -58 172 -210z" />
<glyph unicode="t" horiz-adv-x="500" d="M450 95v-95q-36 -10 -90 -10q-89 0 -139.5 50.5t-50.5 119.5v465h-140v95h140v205h110v-205h165v-95h-165v-445q0 -95 109 -95q28 0 61 10z" />
<glyph unicode="u" horiz-adv-x="840" d="M720 720v-720h-110v120q-22 -60 -83 -97.5t-147 -37.5q-120 0 -190 74t-70 201v460h110v-460q0 -85 44 -130t121 -45q97 0 156 72t59 203v360h110z" />
<glyph unicode="v" horiz-adv-x="730" d="M595 720h125l-295 -720h-130l-285 720h125l225 -605z" />
<glyph unicode="w" horiz-adv-x="1066" d="M913 720h123l-212 -720h-140l-151 544l-151 -544h-140l-212 720h123l159 -591l164 591h114l164 -591z" />
<glyph unicode="x" horiz-adv-x="720" d="M425 370l255 -370h-132l-188 282l-188 -282h-132l255 370l-243 350h136l171 -260l173 260h136z" />
<glyph unicode="y" horiz-adv-x="730" d="M595 720h125l-358 -871q-6 -15 -16 -29.5t-29.5 -34.5t-54 -32.5t-78.5 -12.5q-54 0 -90 10v95q33 -10 61 -10q37 0 60 10.5t30 20.5t14 27l40 97l-289 730h125l225 -605z" />
<glyph unicode="z" horiz-adv-x="610" d="M550 100v-100h-490v95l350 530h-340v95h470v-95l-350 -525h360z" />
<glyph unicode="{" horiz-adv-x="480" d="M438 30v-90h-83q-66 0 -113 47t-47 113v240q0 46 -32 78t-78 32h-30v100h30q45 0 77.5 32.5t32.5 77.5v240q0 66 47 113t113 47h83v-90h-68q-27 0 -46 -19t-19 -46v-245q0 -61 -41 -106.5t-99 -53.5q58 -8 99 -53.5t41 -106.5v-245q0 -27 19 -46t46 -19h68z" />
<glyph unicode="|" horiz-adv-x="430" d="M255 1000v-1250h-80v1250h80z" />
<glyph unicode="}" horiz-adv-x="480" d="M425 550v-100h-30q-46 0 -78 -32t-32 -78v-240q0 -66 -47 -113t-113 -47h-83v90h68q27 0 46 19t19 46v245q0 61 41 106.5t99 53.5q-58 8 -99 53.5t-41 106.5v245q0 27 -19 46t-46 19h-68v90h83q66 0 113 -47t47 -113v-240q0 -45 32.5 -77.5t77.5 -32.5h30z" />
<glyph unicode="~" horiz-adv-x="573" d="M482 510l56 -56l-60 -60q-44 -44 -106 -44t-106 44l-16 16q-20 20 -49 20q-30 0 -50 -20l-60 -60l-56 56l60 60q44 44 106 44t106 -44l16 -16q20 -20 49 -20q30 0 50 20z" />
<glyph unicode="&#xa1;" horiz-adv-x="380" d="M235 750l25 -750h-140l25 750h90zM255 1000v-130h-130v130h130z" />
<glyph unicode="&#xa2;" horiz-adv-x="660" d="M345 232v536q-76 -21 -123 -94t-47 -174t47 -174t123 -94zM550 289l70 -70q-43 -43 -100.5 -67.5t-114.5 -26.5v-125h-60v129q-124 21 -204.5 123t-80.5 248t80.5 248t204.5 122v130h60v-125q57 -2 114.5 -26.5t100.5 -67.5l-70 -70q-62 62 -145 64v-550q83 2 145 64z " />
<glyph unicode="&#xa3;" horiz-adv-x="735" d="M712 895l-77 -77q-28 28 -50 45.5t-59.5 32t-80.5 14.5q-71 0 -118 -54t-47 -126v-230h170v-65h-170v-330h427v-105h-657v105h115v330h-115v65h115v230q0 123 76.5 204t203.5 81q65 0 119.5 -20t83 -42t64.5 -58z" />
<glyph unicode="&#xa5;" horiz-adv-x="812" d="M687 1000h145l-323 -473h203v-65h-246v-90h246v-65h-246v-307h-120v307h-246v65h246v90h-246v65h203l-323 473h145l281 -432z" />
<glyph unicode="&#xa6;" horiz-adv-x="430" d="M255 425v-475h-80v475h80zM255 1050v-475h-80v475h80z" />
<glyph unicode="&#xa7;" horiz-adv-x="625" d="M450 464q0 75 -108 111l-121 40q-46 -29 -46 -84q0 -75 108 -111l121 -40q46 29 46 84zM565 464q0 -86 -62 -144q52 -51 52 -135t-66 -144.5t-184 -60.5q-136 0 -235 99l70 70q69 -69 165 -69q63 0 99 32t36 73q0 36 -24 59t-76 41l-108 36q-172 58 -172 210q0 86 62 144 q-52 51 -52 135t66 144.5t184 60.5q136 0 235 -99l-70 -70q-69 69 -165 69q-63 0 -99 -32t-36 -73q0 -36 24 -59t76 -41l108 -36q172 -58 172 -210z" />
<glyph unicode="&#xa8;" horiz-adv-x="390" d="M135 995v-110h-110v110h110zM365 995v-110h-110v110h110z" />
<glyph unicode="&#xa9;" horiz-adv-x="1170" d="M740 290l51 -51q-79 -79 -200 -79q-138 0 -222.5 95t-84.5 245t84.5 245t222.5 95q121 0 200 -79l-51 -51q-61 61 -149 61q-99 0 -162 -74.5t-63 -196.5t63 -196.5t162 -74.5q88 0 149 61zM1030 500q0 184 -130 314.5t-315 130.5t-315 -130.5t-130 -314.5t130 -314.5 t315 -130.5t315 130.5t130 314.5zM1085 500q0 -136 -67 -251t-182 -182t-251 -67t-251 67t-182 182t-67 251t67 251t182 182t251 67t251 -67t182 -182t67 -251z" />
<glyph unicode="&#xaa;" horiz-adv-x="545" d="M379 698v31h-97q-67 0 -101.5 -28.5t-34.5 -65.5q0 -34 25 -55t69 -21q65 0 102 48t37 91zM455 847v-347h-76v83q-15 -41 -57 -67t-99 -26q-65 0 -110.5 42t-45.5 103q0 67 54.5 113.5t170.5 46.5h87v52q0 40 -32 68.5t-83 28.5q-76 0 -125 -47l-48 48q69 69 173 69 q87 0 139 -47t52 -120z" />
<glyph unicode="&#xab;" horiz-adv-x="600" d="M196 400l140 -280h-116l-140 280l140 280h116zM406 400l140 -280h-116l-140 280l140 280h116z" />
<glyph unicode="&#xae;" horiz-adv-x="1170" d="M603 761h-141v-221h119q60 0 97.5 31t37.5 84q0 106 -113 106zM777 410l48 -240h-84l-45 227q-7 34 -29.5 54t-58.5 20h-146v-301h-79v660h221q95 0 145 -45.5t50 -116.5q0 -57 -32.5 -101t-84.5 -59q40 -4 63.5 -30.5t31.5 -67.5zM1030 500q0 184 -130 314.5t-315 130.5 t-315 -130.5t-130 -314.5t130 -314.5t315 -130.5t315 130.5t130 314.5zM1085 500q0 -136 -67 -251t-182 -182t-251 -67t-251 67t-182 182t-67 251t67 251t182 182t251 67t251 -67t182 -182t67 -251z" />
<glyph unicode="&#xaf;" horiz-adv-x="450" d="M375 975v-85h-300v85h300z" />
<glyph unicode="&#xb0;" horiz-adv-x="480" d="M350 825q0 46 -32 78t-78 32t-78 -32t-32 -78t32 -78t78 -32t78 32t32 78zM430 825q0 -79 -55.5 -134.5t-134.5 -55.5t-134.5 55.5t-55.5 134.5t55.5 134.5t134.5 55.5t134.5 -55.5t55.5 -134.5z" />
<glyph unicode="&#xb1;" horiz-adv-x="750" d="M690 190v-90h-630v90h630zM690 610v-90h-270v-270h-90v270h-270v90h270v270h90v-270h270z" />
<glyph unicode="&#xb2;" horiz-adv-x="515" d="M458 403v-70h-408v63q180 179 242 264.5t62 158.5q0 49 -31.5 84.5t-85.5 35.5q-72 0 -133 -61l-52 51q80 80 185 80q90 0 145 -54.5t55 -135.5q0 -79 -64.5 -171t-218.5 -245h304z" />
<glyph unicode="&#xb3;" horiz-adv-x="570" d="M486 519q0 -80 -64 -138t-166 -58q-61 0 -109.5 21.5t-76.5 58.5l51 51q61 -61 135 -61q67 0 107 37t40 89t-39.5 89.5t-107.5 37.5h-70v69h70q61 0 97.5 32t36.5 80t-36.5 80t-97.5 32q-72 0 -133 -61l-51 51q80 80 184 80q98 0 157.5 -51t59.5 -131q0 -57 -36.5 -96 t-76.5 -50q52 -13 89 -61.5t37 -100.5z" />
<glyph unicode="&#xb4;" horiz-adv-x="450" d="M215 1020h135l-164 -230h-86z" />
<glyph unicode="&#xb5;" horiz-adv-x="840" d="M720 720v-720h-110v120q-22 -60 -83 -97.5t-147 -37.5q-98 0 -150 55v-290h-110v970h110v-460q0 -85 44 -130t121 -45q97 0 156 72t59 203v360h110z" />
<glyph unicode="&#xb6;" horiz-adv-x="740" d="M620 1000v-1250h-105v1155h-95v-1155h-105v700q-113 0 -194 81t-81 194t81 194t194 81h305z" />
<glyph unicode="&#xb7;" d="M240 465v-130h-130v130h130z" />
<glyph unicode="&#xb8;" horiz-adv-x="470" d="M361 -150q0 -41 -41.5 -73t-111.5 -32q-63 0 -118 42l40 40q33 -27 73 -27q34 0 52.5 14.5t18.5 35.5q0 24 -25.5 38.5t-73.5 14.5l48 97h70l-26 -53q38 -5 66 -31t28 -66z" />
<glyph unicode="&#xb9;" horiz-adv-x="440" d="M280 1000v-667h-77v579q-18 -18 -59 -36t-84 -24v67q40 6 86 31t71 50h63z" />
<glyph unicode="&#xba;" horiz-adv-x="578" d="M438 750q0 86 -41.5 138.5t-107.5 52.5q-64 0 -106.5 -53t-42.5 -138t42.5 -138t106.5 -53q63 0 106 53t43 138zM518 750q0 -117 -66 -188.5t-163 -71.5t-163 71.5t-66 188.5t66 188.5t163 71.5t163 -71.5t66 -188.5z" />
<glyph unicode="&#xbb;" horiz-adv-x="600" d="M170 680l140 -280l-140 -280h-116l140 280l-140 280h116zM380 680l140 -280l-140 -280h-116l140 280l-140 280h116z" />
<glyph unicode="&#xbc;" horiz-adv-x="1075" d="M619 237h221v317zM280 1000v-667h-77v579q-18 -18 -59 -36t-84 -24v67q40 6 86 31t71 50h63zM780 1050h85l-650 -1100h-85zM1012 237v-70h-99v-167h-73v167h-308v67l308 433h73v-430h99z" />
<glyph unicode="&#xbd;" horiz-adv-x="1130" d="M280 1000v-667h-77v579q-18 -18 -59 -36t-84 -24v67q40 6 86 31t71 50h63zM780 1050h85l-650 -1100h-85zM1083 70v-70h-408v63q180 179 242 264.5t62 158.5q0 49 -31.5 84.5t-85.5 35.5q-72 0 -133 -61l-52 51q80 80 185 80q90 0 145 -54.5t55 -135.5q0 -79 -64.5 -171 t-218.5 -245h304z" />
<glyph unicode="&#xbe;" horiz-adv-x="1225" d="M769 237h221v317zM486 519q0 -80 -64 -138t-166 -58q-61 0 -109.5 21.5t-76.5 58.5l51 51q61 -61 135 -61q67 0 107 37t40 89t-39.5 89.5t-107.5 37.5h-70v69h70q61 0 97.5 32t36.5 80t-36.5 80t-97.5 32q-72 0 -133 -61l-51 51q80 80 184 80q98 0 157.5 -51t59.5 -131 q0 -57 -36.5 -96t-76.5 -50q52 -13 89 -61.5t37 -100.5zM930 1050h85l-650 -1100h-85zM1162 237v-70h-99v-167h-73v167h-308v67l308 433h73v-430h99z" />
<glyph unicode="&#xbf;" horiz-adv-x="685" d="M568 182l77 -77q-58 -57 -122.5 -88.5t-152.5 -31.5q-130 0 -215 79t-85 191q0 74 27 124t83 106l73 73q50 50 66 87t16 105h110q0 -147 -92 -239l-73 -73q-45 -45 -65 -83t-20 -100q0 -64 50 -114.5t125 -50.5q68 0 112 24.5t86 67.5zM455 1000v-130h-130v130h130z" />
<glyph unicode="&#xc0;" horiz-adv-x="880" d="M263 360h354l-177 496zM505 1000l370 -1000h-130l-91 255h-428l-91 -255h-130l370 1000h130zM434 1275l115 -230h-86l-164 230h135z" />
<glyph unicode="&#xc1;" horiz-adv-x="880" d="M263 360h354l-177 496zM505 1000l370 -1000h-130l-91 255h-428l-91 -255h-130l370 1000h130zM440 1275h135l-164 -230h-86z" />
<glyph unicode="&#xc2;" horiz-adv-x="880" d="M263 360h354l-177 496zM505 1000l370 -1000h-130l-91 255h-428l-91 -255h-130l370 1000h130zM500 1275l130 -230h-106l-84 144l-84 -144h-106l130 230h120z" />
<glyph unicode="&#xc3;" horiz-adv-x="880" d="M263 360h354l-177 496zM505 1000l370 -1000h-130l-91 255h-428l-91 -255h-130l370 1000h130zM601 1195h80q0 -62 -44 -106t-106 -44t-106 44l-16 16q-20 20 -49 20t-49.5 -20.5t-20.5 -49.5h-80q0 62 44 106t106 44t106 -44l16 -16q20 -20 49 -20t49.5 20.5t20.5 49.5z " />
<glyph unicode="&#xc4;" horiz-adv-x="880" d="M263 360h354l-177 496zM505 1000l370 -1000h-130l-91 255h-428l-91 -255h-130l370 1000h130zM380 1220v-110h-110v110h110zM610 1220v-110h-110v110h110z" />
<glyph unicode="&#xc5;" horiz-adv-x="880" d="M263 360h354l-177 496zM515 1150q0 31 -22 53t-53 22t-53 -22t-22 -53t22 -53t53 -22t53 22t22 53zM505 1000l370 -1000h-130l-91 255h-428l-91 -255h-130l370 1000h130zM550 1150q0 -45 -32.5 -77.5t-77.5 -32.5t-77.5 32.5t-32.5 77.5t32.5 77.5t77.5 32.5t77.5 -32.5 t32.5 -77.5z" />
<glyph unicode="&#xc6;" horiz-adv-x="1170" d="M259 360h311v535zM1090 105v-105h-520v255h-372l-148 -255h-135l595 1000h570v-105h-390v-335h380v-105h-380v-350h400z" />
<glyph unicode="&#xc7;" horiz-adv-x="870" d="M757 182l77 -77q-116 -116 -291 -120l-19 -38q38 -5 66 -31t28 -66q0 -41 -41.5 -73t-111.5 -32q-63 0 -118 42l40 40q33 -27 73 -27q34 0 52.5 14.5t18.5 35.5q0 24 -25.5 38.5t-73.5 14.5l42 85q-185 20 -297 160.5t-112 351.5q0 227 128.5 371t336.5 144 q184 0 304 -120l-77 -77q-49 49 -101.5 70.5t-125.5 21.5q-149 0 -244.5 -112.5t-95.5 -297.5t95.5 -297.5t244.5 -112.5q73 0 125.5 21.5t101.5 70.5z" />
<glyph unicode="&#xc8;" horiz-adv-x="730" d="M650 105v-105h-520v1000h510v-105h-390v-335h380v-105h-380v-350h400zM385 1275l115 -230h-86l-164 230h135z" />
<glyph unicode="&#xc9;" horiz-adv-x="730" d="M650 105v-105h-520v1000h510v-105h-390v-335h380v-105h-380v-350h400zM415 1275h135l-164 -230h-86z" />
<glyph unicode="&#xca;" horiz-adv-x="730" d="M650 105v-105h-520v1000h510v-105h-390v-335h380v-105h-380v-350h400zM450 1275l130 -230h-106l-84 144l-84 -144h-106l130 230h120z" />
<glyph unicode="&#xcb;" horiz-adv-x="730" d="M650 105v-105h-520v1000h510v-105h-390v-335h380v-105h-380v-350h400zM335 1220v-110h-110v110h110zM565 1220v-110h-110v110h110z" />
<glyph unicode="&#xcc;" horiz-adv-x="380" d="M250 1000v-1000h-120v1000h120zM160 1275l115 -230h-86l-164 230h135z" />
<glyph unicode="&#xcd;" horiz-adv-x="380" d="M250 1000v-1000h-120v1000h120zM220 1275h135l-164 -230h-86z" />
<glyph unicode="&#xce;" horiz-adv-x="380" d="M250 1000v-1000h-120v1000h120zM250 1275l130 -230h-106l-84 144l-84 -144h-106l130 230h120z" />
<glyph unicode="&#xcf;" horiz-adv-x="380" d="M250 1000v-1000h-120v1000h120zM130 1220v-110h-110v110h110zM360 1220v-110h-110v110h110z" />
<glyph unicode="&#xd0;" horiz-adv-x="970" d="M780 500q0 98 -30.5 175t-83.5 124.5t-122 71.5t-149 24h-145v-350h105v-90h-105v-350h145q80 0 149 24t122 71.5t83.5 124.5t30.5 175zM905 500q0 -122 -41.5 -219t-112.5 -157.5t-162 -92t-194 -31.5h-265v455h-105v90h105v455h265q107 0 198.5 -31.5t161.5 -92 t110 -157.5t40 -219z" />
<glyph unicode="&#xd1;" horiz-adv-x="970" d="M840 1000v-1001h-170l-420 841v-840h-120v1000h170l420 -840v840h120zM641 1195h80q0 -62 -44 -106t-106 -44t-106 44l-16 16q-20 20 -49 20t-49.5 -20.5t-20.5 -49.5h-80q0 62 44 106t106 44t106 -44l16 -16q20 -20 49 -20t49.5 20.5t20.5 49.5z" />
<glyph unicode="&#xd2;" horiz-adv-x="1020" d="M830 500q0 183 -92.5 296.5t-227.5 113.5t-227.5 -113.5t-92.5 -296.5t92.5 -296.5t227.5 -113.5t227.5 113.5t92.5 296.5zM955 500q0 -225 -125 -370t-320 -145t-320 145t-125 370t125 370t320 145t320 -145t125 -370zM438 1275l115 -230h-86l-164 230h135z" />
<glyph unicode="&#xd3;" horiz-adv-x="1020" d="M830 500q0 183 -92.5 296.5t-227.5 113.5t-227.5 -113.5t-92.5 -296.5t92.5 -296.5t227.5 -113.5t227.5 113.5t92.5 296.5zM955 500q0 -225 -125 -370t-320 -145t-320 145t-125 370t125 370t320 145t320 -145t125 -370zM580 1275h135l-164 -230h-86z" />
<glyph unicode="&#xd4;" horiz-adv-x="1020" d="M830 500q0 183 -92.5 296.5t-227.5 113.5t-227.5 -113.5t-92.5 -296.5t92.5 -296.5t227.5 -113.5t227.5 113.5t92.5 296.5zM955 500q0 -225 -125 -370t-320 -145t-320 145t-125 370t125 370t320 145t320 -145t125 -370zM570 1275l130 -230h-106l-84 144l-84 -144h-106 l130 230h120z" />
<glyph unicode="&#xd5;" horiz-adv-x="1020" d="M830 500q0 183 -92.5 296.5t-227.5 113.5t-227.5 -113.5t-92.5 -296.5t92.5 -296.5t227.5 -113.5t227.5 113.5t92.5 296.5zM955 500q0 -225 -125 -370t-320 -145t-320 145t-125 370t125 370t320 145t320 -145t125 -370zM665 1195h80q0 -62 -44 -106t-106 -44t-106 44 l-16 16q-20 20 -49 20t-49.5 -20.5t-20.5 -49.5h-80q0 62 44 106t106 44t106 -44l16 -16q20 -20 49 -20t49.5 20.5t20.5 49.5z" />
<glyph unicode="&#xd6;" horiz-adv-x="1020" d="M830 500q0 183 -92.5 296.5t-227.5 113.5t-227.5 -113.5t-92.5 -296.5t92.5 -296.5t227.5 -113.5t227.5 113.5t92.5 296.5zM955 500q0 -225 -125 -370t-320 -145t-320 145t-125 370t125 370t320 145t320 -145t125 -370zM450 1220v-110h-110v110h110zM680 1220v-110h-110 v110h110z" />
<glyph unicode="&#xd7;" horiz-adv-x="750" d="M439 490l216 -216l-64 -64l-216 216l-216 -216l-64 64l216 216l-216 216l64 64l216 -216l216 216l64 -64z" />
<glyph unicode="&#xd8;" horiz-adv-x="1020" d="M275 213l417 630q-81 67 -182 67q-135 0 -227.5 -113.5t-92.5 -296.5q0 -173 85 -287zM830 500q0 173 -85 287l-418 -630q83 -67 183 -67q135 0 227.5 113.5t92.5 296.5zM955 500q0 -225 -125 -370t-320 -145q-138 0 -246 77l-74 -112h-90l107 161q-142 147 -142 389 q0 225 125 370t320 145q138 0 246 -77l74 112h90l-107 -161q142 -147 142 -389z" />
<glyph unicode="&#xd9;" horiz-adv-x="960" d="M830 1000v-695q0 -160 -99 -242.5t-251 -82.5t-251 82.5t-99 242.5v695h120v-695q0 -105 64 -162.5t166 -57.5t166 57.5t64 162.5v695h120zM440 1275l115 -230h-86l-164 230h135z" />
<glyph unicode="&#xda;" horiz-adv-x="960" d="M830 1000v-695q0 -160 -99 -242.5t-251 -82.5t-251 82.5t-99 242.5v695h120v-695q0 -105 64 -162.5t166 -57.5t166 57.5t64 162.5v695h120zM525 1275h135l-164 -230h-86z" />
<glyph unicode="&#xdb;" horiz-adv-x="960" d="M830 1000v-695q0 -160 -99 -242.5t-251 -82.5t-251 82.5t-99 242.5v695h120v-695q0 -105 64 -162.5t166 -57.5t166 57.5t64 162.5v695h120zM540 1275l130 -230h-106l-84 144l-84 -144h-106l130 230h120z" />
<glyph unicode="&#xdc;" horiz-adv-x="960" d="M830 1000v-695q0 -160 -99 -242.5t-251 -82.5t-251 82.5t-99 242.5v695h120v-695q0 -105 64 -162.5t166 -57.5t166 57.5t64 162.5v695h120zM420 1220v-110h-110v110h110zM650 1220v-110h-110v110h110z" />
<glyph unicode="&#xdd;" horiz-adv-x="752" d="M657 1000h145l-366 -538v-462h-120v462l-366 538h145l281 -432zM389 1275h135l-164 -230h-86z" />
<glyph unicode="&#xde;" horiz-adv-x="800" d="M635 500q0 78 -50.5 128t-144.5 50h-190v-355h190q94 0 144.5 49.5t50.5 127.5zM130 1000h120v-217h190q147 0 233.5 -79.5t86.5 -202.5q0 -128 -86 -205.5t-234 -77.5h-190v-218h-120v1000z" />
<glyph unicode="&#xdf;" horiz-adv-x="800" d="M720 285q0 -129 -86.5 -214.5t-238.5 -85.5q-54 0 -90 10v95q33 -10 70 -10q106 0 163 57t57 143t-55 143t-155 57h-80v95h90q77 0 123.5 50t46.5 122t-46 122.5t-119 50.5q-74 0 -122 -51t-48 -122v-747h-110v742q0 123 76 198t204 75t204 -74t76 -194q0 -46 -16 -86 t-40.5 -66.5t-46.5 -43t-42 -24.5q82 -23 133.5 -89t51.5 -153z" />
<glyph unicode="&#xe0;" horiz-adv-x="760" d="M530 285v45h-140q-97 0 -146 -41t-49 -94q0 -50 36 -80t99 -30q49 0 89.5 22t63.5 54.5t35 65t12 58.5zM640 500v-500h-110v120q-22 -60 -82 -97.5t-143 -37.5q-94 0 -159.5 61t-65.5 149q0 44 17.5 83.5t54 73t101.5 53.5t152 20h125v75q0 57 -46 98.5t-119 41.5 q-111 0 -180 -69l-70 70q99 99 250 99q125 0 200 -67.5t75 -172.5zM355 1020l115 -230h-86l-164 230h135z" />
<glyph unicode="&#xe1;" horiz-adv-x="760" d="M530 285v45h-140q-97 0 -146 -41t-49 -94q0 -50 36 -80t99 -30q49 0 89.5 22t63.5 54.5t35 65t12 58.5zM640 500v-500h-110v120q-22 -60 -82 -97.5t-143 -37.5q-94 0 -159.5 61t-65.5 149q0 44 17.5 83.5t54 73t101.5 53.5t152 20h125v75q0 57 -46 98.5t-119 41.5 q-111 0 -180 -69l-70 70q99 99 250 99q125 0 200 -67.5t75 -172.5zM395 1020h135l-164 -230h-86z" />
<glyph unicode="&#xe2;" horiz-adv-x="760" d="M530 285v45h-140q-97 0 -146 -41t-49 -94q0 -50 36 -80t99 -30q49 0 89.5 22t63.5 54.5t35 65t12 58.5zM640 500v-500h-110v120q-22 -60 -82 -97.5t-143 -37.5q-94 0 -159.5 61t-65.5 149q0 44 17.5 83.5t54 73t101.5 53.5t152 20h125v75q0 57 -46 98.5t-119 41.5 q-111 0 -180 -69l-70 70q99 99 250 99q125 0 200 -67.5t75 -172.5zM430 1020l130 -230h-106l-84 144l-84 -144h-106l130 230h120z" />
<glyph unicode="&#xe3;" horiz-adv-x="760" d="M530 285v45h-140q-97 0 -146 -41t-49 -94q0 -50 36 -80t99 -30q49 0 89.5 22t63.5 54.5t35 65t12 58.5zM640 500v-500h-110v120q-22 -60 -82 -97.5t-143 -37.5q-94 0 -159.5 61t-65.5 149q0 44 17.5 83.5t54 73t101.5 53.5t152 20h125v75q0 57 -46 98.5t-119 41.5 q-111 0 -180 -69l-70 70q99 99 250 99q125 0 200 -67.5t75 -172.5zM524 988h80q0 -62 -44 -106t-106 -44t-106 44l-16 16q-20 20 -49 20t-49.5 -20.5t-20.5 -49.5h-80q0 62 44 106t106 44t106 -44l16 -16q20 -20 49 -20q28 0 49 21t21 49z" />
<glyph unicode="&#xe4;" horiz-adv-x="760" d="M530 285v45h-140q-97 0 -146 -41t-49 -94q0 -50 36 -80t99 -30q49 0 89.5 22t63.5 54.5t35 65t12 58.5zM640 500v-500h-110v120q-22 -60 -82 -97.5t-143 -37.5q-94 0 -159.5 61t-65.5 149q0 44 17.5 83.5t54 73t101.5 53.5t152 20h125v75q0 57 -46 98.5t-119 41.5 q-111 0 -180 -69l-70 70q99 99 250 99q125 0 200 -67.5t75 -172.5zM310 995v-110h-110v110h110zM540 995v-110h-110v110h110z" />
<glyph unicode="&#xe5;" horiz-adv-x="760" d="M530 285v45h-140q-97 0 -146 -41t-49 -94q0 -50 36 -80t99 -30q49 0 89.5 22t63.5 54.5t35 65t12 58.5zM435 910q0 31 -22 53t-53 22t-53 -22t-22 -53t22 -53t53 -22t53 22t22 53zM640 500v-500h-110v120q-22 -60 -82 -97.5t-143 -37.5q-94 0 -159.5 61t-65.5 149 q0 44 17.5 83.5t54 73t101.5 53.5t152 20h125v75q0 57 -46 98.5t-119 41.5q-111 0 -180 -69l-70 70q99 99 250 99q125 0 200 -67.5t75 -172.5zM470 910q0 -46 -32 -78t-78 -32t-78 32t-32 78t32 78t78 32t78 -32t32 -78z" />
<glyph unicode="&#xe6;" horiz-adv-x="1205" d="M530 285v45h-140q-97 0 -146 -41t-49 -94q0 -50 36 -80t99 -30q49 0 89.5 22t63.5 54.5t35 65t12 58.5zM645 425h381q-14 103 -65.5 156.5t-120.5 53.5q-74 0 -127.5 -56.5t-67.5 -153.5zM1145 360v-35h-504q9 -110 72 -175t162 -65q101 0 165 64l70 -70 q-94 -94 -235 -94q-94 0 -169.5 42.5t-122.5 125.5q-31 -74 -103.5 -121t-174.5 -47q-94 0 -159.5 61t-65.5 149q0 44 17.5 83.5t54 73t101.5 53.5t152 20h125v75q0 57 -46 98.5t-119 41.5q-111 0 -180 -69l-70 70q99 99 250 99q87 0 149.5 -32.5t93.5 -91.5q89 119 232 119 q134 0 219.5 -102t85.5 -273z" />
<glyph unicode="&#xe7;" horiz-adv-x="660" d="M550 149l70 -70q-42 -42 -99 -67t-113 -27l-19 -38q38 -5 66 -31t28 -66q0 -41 -41.5 -73t-111.5 -32q-63 0 -118 42l40 40q33 -27 73 -27q34 0 52.5 14.5t18.5 35.5q0 24 -25.5 38.5t-73.5 14.5l43 87q-123 22 -201.5 123.5t-78.5 246.5q0 163 98 269t242 106 q58 0 117 -25t103 -69l-70 -70q-64 64 -150 64q-98 0 -161.5 -77.5t-63.5 -197.5t63.5 -197.5t161.5 -77.5q86 0 150 64z" />
<glyph unicode="&#xe8;" horiz-adv-x="740" d="M180 425h381q-14 103 -65.5 156.5t-120.5 53.5q-74 0 -127.5 -56.5t-67.5 -153.5zM680 360v-35h-504q9 -110 72 -175t162 -65q101 0 165 64l70 -70q-94 -94 -235 -94q-153 0 -251.5 104t-98.5 271q0 163 91 269t224 106q134 0 219.5 -102t85.5 -273zM350 1020l115 -230 h-86l-164 230h135z" />
<glyph unicode="&#xe9;" horiz-adv-x="740" d="M180 425h381q-14 103 -65.5 156.5t-120.5 53.5q-74 0 -127.5 -56.5t-67.5 -153.5zM680 360v-35h-504q9 -110 72 -175t162 -65q101 0 165 64l70 -70q-94 -94 -235 -94q-153 0 -251.5 104t-98.5 271q0 163 91 269t224 106q134 0 219.5 -102t85.5 -273zM405 1020h135 l-164 -230h-86z" />
<glyph unicode="&#xea;" horiz-adv-x="740" d="M180 425h381q-14 103 -65.5 156.5t-120.5 53.5q-74 0 -127.5 -56.5t-67.5 -153.5zM680 360v-35h-504q9 -110 72 -175t162 -65q101 0 165 64l70 -70q-94 -94 -235 -94q-153 0 -251.5 104t-98.5 271q0 163 91 269t224 106q134 0 219.5 -102t85.5 -273zM430 1020l130 -230 h-106l-84 144l-84 -144h-106l130 230h120z" />
<glyph unicode="&#xeb;" horiz-adv-x="740" d="M180 425h381q-14 103 -65.5 156.5t-120.5 53.5q-74 0 -127.5 -56.5t-67.5 -153.5zM680 360v-35h-504q9 -110 72 -175t162 -65q101 0 165 64l70 -70q-94 -94 -235 -94q-153 0 -251.5 104t-98.5 271q0 163 91 269t224 106q134 0 219.5 -102t85.5 -273zM315 995v-110h-110 v110h110zM545 995v-110h-110v110h110z" />
<glyph unicode="&#xec;" d="M230 720v-720h-110v720h110zM125 1020l115 -230h-86l-164 230h135z" />
<glyph unicode="&#xed;" d="M230 720v-720h-110v720h110zM225 1020h135l-164 -230h-86z" />
<glyph unicode="&#xee;" d="M230 720v-720h-110v720h110zM235 1020l130 -230h-106l-84 144l-84 -144h-106l130 230h120z" />
<glyph unicode="&#xef;" d="M230 720v-720h-110v720h110zM115 995v-110h-110v110h110zM345 995v-110h-110v110h110z" />
<glyph unicode="&#xf0;" horiz-adv-x="880" d="M645 310q0 88 -59.5 154t-159.5 66q-101 0 -161 -66t-60 -154t60 -154t160 -66q101 0 160.5 66t59.5 154zM790 500q0 -233 -92 -374t-273 -141q-154 0 -249.5 93.5t-95.5 231.5q0 132 96 228.5t249 96.5q88 0 154.5 -44t90.5 -91q0 194 -68 299l-82 -82l-63 63l85 85 q-62 45 -147 45q-116 0 -208 -92l-77 77q49 49 124 84.5t161 35.5q133 0 226 -71l69 69l63 -63l-69 -69q106 -138 106 -381z" />
<glyph unicode="&#xf1;" horiz-adv-x="840" d="M720 460v-460h-110v460q0 85 -44 130t-121 45q-97 0 -156 -72t-59 -203v-360h-110v720h110v-120q22 60 83 97.5t147 37.5q120 0 190 -74t70 -201zM581 988h80q0 -62 -44 -106t-106 -44t-106 44l-16 16q-20 20 -49 20t-49.5 -20.5t-20.5 -49.5h-80q0 62 44 106t106 44 t106 -44l16 -16q20 -20 49 -20t49.5 21t20.5 49z" />
<glyph unicode="&#xf2;" horiz-adv-x="780" d="M605 360q0 123 -60.5 199t-154.5 76q-92 0 -153.5 -76.5t-61.5 -198.5t61.5 -198.5t153.5 -76.5t153.5 76.5t61.5 198.5zM720 360q0 -168 -95.5 -271.5t-234.5 -103.5t-234.5 103.5t-95.5 271.5t95.5 271.5t234.5 103.5t234.5 -103.5t95.5 -271.5zM361 1020l115 -230h-86 l-164 230h135z" />
<glyph unicode="&#xf3;" horiz-adv-x="780" d="M605 360q0 123 -60.5 199t-154.5 76q-92 0 -153.5 -76.5t-61.5 -198.5t61.5 -198.5t153.5 -76.5t153.5 76.5t61.5 198.5zM720 360q0 -168 -95.5 -271.5t-234.5 -103.5t-234.5 103.5t-95.5 271.5t95.5 271.5t234.5 103.5t234.5 -103.5t95.5 -271.5zM419 1020h135 l-164 -230h-86z" />
<glyph unicode="&#xf4;" horiz-adv-x="780" d="M605 360q0 123 -60.5 199t-154.5 76q-92 0 -153.5 -76.5t-61.5 -198.5t61.5 -198.5t153.5 -76.5t153.5 76.5t61.5 198.5zM720 360q0 -168 -95.5 -271.5t-234.5 -103.5t-234.5 103.5t-95.5 271.5t95.5 271.5t234.5 103.5t234.5 -103.5t95.5 -271.5zM450 1020l130 -230 h-106l-84 144l-84 -144h-106l130 230h120z" />
<glyph unicode="&#xf5;" horiz-adv-x="780" d="M605 360q0 123 -60.5 199t-154.5 76q-92 0 -153.5 -76.5t-61.5 -198.5t61.5 -198.5t153.5 -76.5t153.5 76.5t61.5 198.5zM720 360q0 -168 -95.5 -271.5t-234.5 -103.5t-234.5 103.5t-95.5 271.5t95.5 271.5t234.5 103.5t234.5 -103.5t95.5 -271.5zM545 988h80 q0 -62 -44 -106t-106 -44t-106 44l-16 16q-20 20 -49 20t-49.5 -20.5t-20.5 -49.5h-80q0 62 44 106t106 44t106 -44l16 -16q20 -20 49 -20t49.5 21t20.5 49z" />
<glyph unicode="&#xf6;" horiz-adv-x="780" d="M605 360q0 123 -60.5 199t-154.5 76q-92 0 -153.5 -76.5t-61.5 -198.5t61.5 -198.5t153.5 -76.5t153.5 76.5t61.5 198.5zM720 360q0 -168 -95.5 -271.5t-234.5 -103.5t-234.5 103.5t-95.5 271.5t95.5 271.5t234.5 103.5t234.5 -103.5t95.5 -271.5zM330 995v-110h-110v110 h110zM560 995v-110h-110v110h110z" />
<glyph unicode="&#xf8;" horiz-adv-x="780" d="M232 168l271 431q-50 36 -113 36q-92 0 -153.5 -76.5t-61.5 -198.5q0 -116 57 -192zM605 360q0 118 -56 193l-271 -431q49 -37 112 -37q92 0 153.5 76.5t61.5 198.5zM720 360q0 -168 -95.5 -271.5t-234.5 -103.5q-92 0 -168 48l-52 -83h-75l77 122q-112 106 -112 288 q0 168 95.5 271.5t234.5 103.5q92 0 168 -48l52 83h75l-77 -122q112 -106 112 -288z" />
<glyph unicode="&#xf9;" horiz-adv-x="840" d="M720 720v-720h-110v120q-22 -60 -83 -97.5t-147 -37.5q-120 0 -190 74t-70 201v460h110v-460q0 -85 44 -130t121 -45q97 0 156 72t59 203v360h110zM360 1020l115 -230h-86l-164 230h135z" />
<glyph unicode="&#xfa;" horiz-adv-x="840" d="M720 720v-720h-110v120q-22 -60 -83 -97.5t-147 -37.5q-120 0 -190 74t-70 201v460h110v-460q0 -85 44 -130t121 -45q97 0 156 72t59 203v360h110zM454 1020h135l-164 -230h-86z" />
<glyph unicode="&#xfb;" horiz-adv-x="840" d="M720 720v-720h-110v120q-22 -60 -83 -97.5t-147 -37.5q-120 0 -190 74t-70 201v460h110v-460q0 -85 44 -130t121 -45q97 0 156 72t59 203v360h110zM480 1020l130 -230h-106l-84 144l-84 -144h-106l130 230h120z" />
<glyph unicode="&#xfc;" horiz-adv-x="840" d="M720 720v-720h-110v120q-22 -60 -83 -97.5t-147 -37.5q-120 0 -190 74t-70 201v460h110v-460q0 -85 44 -130t121 -45q97 0 156 72t59 203v360h110zM355 995v-110h-110v110h110zM585 995v-110h-110v110h110z" />
<glyph unicode="&#xfd;" horiz-adv-x="730" d="M595 720h125l-358 -871q-6 -15 -16 -29.5t-29.5 -34.5t-54 -32.5t-78.5 -12.5q-54 0 -90 10v95q33 -10 61 -10q37 0 60 10.5t30 20.5t14 27l40 97l-289 730h125l225 -605zM369 1020h135l-164 -230h-86z" />
<glyph unicode="&#xfe;" horiz-adv-x="835" d="M660 375q0 133 -60 211.5t-155 78.5q-92 0 -153.5 -79t-61.5 -211t61.5 -211t153.5 -79t153.5 79t61.5 211zM775 375q0 -177 -92.5 -283.5t-222.5 -106.5q-70 0 -137 35t-93 90v-360h-110v1250h110v-365q25 58 92.5 94t137.5 36q130 0 222.5 -106.5t92.5 -283.5z" />
<glyph unicode="&#xff;" horiz-adv-x="730" d="M595 720h125l-358 -871q-6 -15 -16 -29.5t-29.5 -34.5t-54 -32.5t-78.5 -12.5q-54 0 -90 10v95q33 -10 61 -10q37 0 60 10.5t30 20.5t14 27l40 97l-289 730h125l225 -605zM305 995v-110h-110v110h110zM535 995v-110h-110v110h110z" />
<glyph unicode="&#x131;" d="M230 720v-720h-110v720h110z" />
<glyph unicode="&#x141;" horiz-adv-x="650" d="M650 105v-105h-520v424l-78 -39l-37 74l115 57v484h120v-424l73 37l37 -74l-110 -55v-379h400z" />
<glyph unicode="&#x142;" d="M310 613l37 -74l-117 -58v-481h-110v426l-81 -41l-37 74l118 59v482h110v-427z" />
<glyph unicode="&#x152;" horiz-adv-x="1430" d="M830 500q0 183 -92.5 296.5t-227.5 113.5t-227.5 -113.5t-92.5 -296.5t92.5 -296.5t227.5 -113.5t227.5 113.5t92.5 296.5zM1350 105v-105h-520v145q-115 -160 -320 -160q-195 0 -320 145t-125 370t125 370t320 145q208 0 320 -160v145h510v-105h-390v-335h380v-105h-380 v-350h400z" />
<glyph unicode="&#x153;" horiz-adv-x="1285" d="M605 360q0 123 -60.5 199t-154.5 76q-92 0 -153.5 -76.5t-61.5 -198.5t61.5 -198.5t153.5 -76.5t153.5 76.5t61.5 198.5zM725 425h381q-14 103 -65.5 156.5t-120.5 53.5q-74 0 -127.5 -56.5t-67.5 -153.5zM1225 360v-35h-504q9 -110 72 -175t162 -65q101 0 165 64l70 -70 q-94 -94 -235 -94q-94 0 -170 43t-121 120q-43 -77 -115 -120t-159 -43q-139 0 -234.5 103.5t-95.5 271.5t95.5 271.5t234.5 103.5q86 0 159.5 -42.5t112.5 -116.5q37 73 106.5 116t151.5 43q134 0 219.5 -102t85.5 -273z" />
<glyph unicode="&#x160;" horiz-adv-x="745" d="M695 275q0 -132 -90 -213.5t-240 -81.5q-101 0 -182 36.5t-133 88.5l77 77q97 -97 238 -97q93 0 149 53t56 137q0 118 -159 170l-141 47q-200 66 -200 258q0 48 20 94.5t58 86.5t102.5 64.5t144.5 24.5q176 0 300 -124l-77 -78q-97 97 -223 97q-96 0 -148 -49.5 t-52 -115.5q0 -109 118 -148l142 -47q240 -79 240 -280zM457 1275h106l-130 -230h-120l-130 230h106l84 -144z" />
<glyph unicode="&#x161;" horiz-adv-x="605" d="M555 189q0 -88 -67.5 -148.5t-192.5 -60.5q-73 0 -138.5 29t-106.5 70l70 70q28 -28 74.5 -48.5t100.5 -20.5q67 0 106 30t39 79q0 75 -108 111l-108 36q-164 54 -164 199q0 84 66 144.5t184 60.5q136 0 235 -99l-70 -70q-69 69 -165 69q-63 0 -99 -32t-36 -73 q0 -36 24 -59t76 -41l108 -36q172 -58 172 -210zM387 1020h106l-130 -230h-120l-130 230h106l84 -144z" />
<glyph unicode="&#x178;" horiz-adv-x="752" d="M657 1000h145l-366 -538v-462h-120v462l-366 538h145l281 -432zM316 1195v-110h-110v110h110zM546 1195v-110h-110v110h110z" />
<glyph unicode="&#x17d;" horiz-adv-x="700" d="M650 105v-105h-600v105l460 790h-450v105h580v-105l-460 -790h470zM434 1275h106l-130 -230h-120l-130 230h106l84 -144z" />
<glyph unicode="&#x17e;" horiz-adv-x="610" d="M550 100v-100h-490v95l350 530h-340v95h470v-95l-350 -525h360zM389 1020h106l-130 -230h-120l-130 230h106l84 -144z" />
<glyph unicode="&#x192;" horiz-adv-x="700" d="M703 1000l-21 -95q-30 10 -59 10q-108 0 -129 -95l-44 -210h157v-75h-173l-133 -625q-15 -69 -76 -119.5t-150 -50.5q-54 0 -88 10l20 95q32 -10 59 -10q108 0 129 95l129 605h-132v75h148l49 230q15 69 76 119.5t150 50.5q54 0 88 -10z" />
<glyph unicode="&#x2c6;" horiz-adv-x="450" d="M285 1020l130 -230h-106l-84 144l-84 -144h-106l130 230h120z" />
<glyph unicode="&#x2c7;" horiz-adv-x="450" d="M309 1020h106l-130 -230h-120l-130 230h106l84 -144z" />
<glyph unicode="&#x2d8;" horiz-adv-x="450" d="M325 1000h70q0 -70 -49.5 -120t-120.5 -50t-120.5 50t-49.5 120h70q0 -41 29.5 -70.5t70.5 -29.5t70.5 29.5t29.5 70.5z" />
<glyph unicode="&#x2d9;" horiz-adv-x="440" d="M313 910q0 -38 -27.5 -65t-65.5 -27t-65.5 27t-27.5 65t27.5 65.5t65.5 27.5t65.5 -27.5t27.5 -65.5z" />
<glyph unicode="&#x2da;" horiz-adv-x="440" d="M295 910q0 31 -22 53t-53 22t-53 -22t-22 -53t22 -53t53 -22t53 22t22 53zM330 910q0 -45 -32.5 -77.5t-77.5 -32.5t-77.5 32.5t-32.5 77.5t32.5 77.5t77.5 32.5t77.5 -32.5t32.5 -77.5z" />
<glyph unicode="&#x2db;" horiz-adv-x="450" d="M314 -173l40 -40q-55 -42 -118 -42q-71 0 -112 34t-41 84q0 45 28 86.5t69 65.5l75 -15q-85 -56 -85 -137q0 -29 19.5 -46t51.5 -17q40 0 73 27z" />
<glyph unicode="&#x2dc;" horiz-adv-x="571" d="M441 988h80q0 -62 -44 -106t-106 -44t-106 44l-16 16q-20 20 -49 20t-49.5 -20.5t-20.5 -49.5h-80q0 62 44 106t106 44t106 -44l16 -16q20 -20 49 -20t49.5 21t20.5 49z" />
<glyph unicode="&#x2dd;" horiz-adv-x="650" d="M215 1020h135l-164 -230h-86zM415 1020h135l-164 -230h-86z" />
<glyph unicode="&#x2013;" horiz-adv-x="840" d="M780 420v-90h-720v90h720z" />
<glyph unicode="&#x2014;" horiz-adv-x="1220" d="M1160 420v-90h-1100v90h1100z" />
<glyph unicode="&#x2018;" d="M171 1000h86l-37 -259h-135z" />
<glyph unicode="&#x2019;" d="M130 1000h135l-86 -259h-86z" />
<glyph unicode="&#x201a;" d="M120 130h135l-86 -259h-86z" />
<glyph unicode="&#x201c;" horiz-adv-x="570" d="M171 1000h86l-37 -259h-135zM391 1000h86l-37 -259h-135z" />
<glyph unicode="&#x201d;" horiz-adv-x="570" d="M130 1000h135l-86 -259h-86zM350 1000h135l-86 -259h-86z" />
<glyph unicode="&#x201e;" horiz-adv-x="570" d="M120 130h135l-86 -259h-86zM340 130h135l-86 -259h-86z" />
<glyph unicode="&#x2020;" horiz-adv-x="570" d="M540 720v-95h-200v-875h-110v875h-200v95h200v280h110v-280h200z" />
<glyph unicode="&#x2021;" horiz-adv-x="570" d="M540 95v-95h-200v-250h-110v250h-200v95h200v530h-200v95h200v280h110v-280h200v-95h-200v-530h200z" />
<glyph unicode="&#x2022;" horiz-adv-x="410" d="M310 400q0 -44 -31 -74.5t-74 -30.5t-74 30.5t-31 74.5t31 74.5t74 30.5t74 -30.5t31 -74.5z" />
<glyph unicode="&#x2026;" horiz-adv-x="740" d="M240 130v-130h-130v130h130zM435 130v-130h-130v130h130zM630 130v-130h-130v130h130z" />
<glyph unicode="&#x2030;" horiz-adv-x="1550" d="M388 725q0 94 -32 149.5t-91 55.5t-91 -55.5t-32 -149.5t32 -149.5t91 -55.5t91 55.5t32 149.5zM918 275q0 94 -32 149.5t-91 55.5t-91 -55.5t-32 -149.5t32 -149.5t91 -55.5t91 55.5t32 149.5zM1408 275q0 94 -32 149.5t-91 55.5t-91 -55.5t-32 -149.5t32 -149.5 t91 -55.5t91 55.5t32 149.5zM480 725q0 -130 -58.5 -207.5t-156.5 -77.5t-156.5 77.5t-58.5 207.5t58.5 207.5t156.5 77.5t156.5 -77.5t58.5 -207.5zM800 1050h85l-625 -1100h-85zM1010 275q0 -130 -58.5 -207.5t-156.5 -77.5t-156.5 77.5t-58.5 207.5t58.5 207.5 t156.5 77.5t156.5 -77.5t58.5 -207.5zM1500 275q0 -130 -58.5 -207.5t-156.5 -77.5t-156.5 77.5t-58.5 207.5t58.5 207.5t156.5 77.5t156.5 -77.5t58.5 -207.5z" />
<glyph unicode="&#x2039;" horiz-adv-x="390" d="M196 400l140 -280h-116l-140 280l140 280h116z" />
<glyph unicode="&#x203a;" horiz-adv-x="390" d="M170 680l140 -280l-140 -280h-116l140 280l-140 280h116z" />
<glyph unicode="&#x20ac;" horiz-adv-x="890" d="M777 182l77 -77q-120 -120 -304 -120q-181 0 -303.5 111t-152.5 294h-94v65h86q-1 15 -1 45t1 45h-86v65h94q30 183 152.5 294t303.5 111q184 0 304 -120l-77 -77q-49 49 -101.5 70.5t-125.5 21.5q-124 0 -213.5 -80.5t-116.5 -219.5h410v-65h-418q-2 -30 -2 -45t2 -45 h418v-65h-410q27 -139 116.5 -219.5t213.5 -80.5q73 0 125.5 21.5t101.5 70.5z" />
<glyph unicode="&#x2122;" horiz-adv-x="558" d="M211 1000v-31h-72v-219h-38v219h-76v31h186zM493 1000v-250h-38v205l-67 -205h-42l-66 205v-205h-38v250h59l66 -205l66 205h60z" />
<glyph unicode="&#x2202;" horiz-adv-x="880" d="M645 310q0 88 -59.5 154t-159.5 66q-101 0 -161 -66t-60 -154t60 -154t160 -66q101 0 160.5 66t59.5 154zM790 500q0 -233 -92 -374t-273 -141q-154 0 -249.5 93.5t-95.5 231.5q0 132 96 228.5t249 96.5q88 0 154.5 -44t90.5 -91q0 193 -69 301.5t-206 108.5 q-116 0 -208 -92l-77 77q49 49 124 84.5t161 35.5q191 0 293 -140t102 -375z" />
<glyph unicode="&#x220f;" horiz-adv-x="1170" d="M731 643q0 52 -33.5 85t-95.5 33h-125v-235h125q62 0 95.5 32.5t33.5 84.5zM813 644q0 -84 -56.5 -135.5t-154.5 -51.5h-125v-287h-79v660h204q97 0 154 -52.5t57 -133.5zM1030 500q0 184 -130 314.5t-315 130.5t-315 -130.5t-130 -314.5t130 -314.5t315 -130.5 t315 130.5t130 314.5zM1085 500q0 -136 -67 -251t-182 -182t-251 -67t-251 67t-182 182t-67 251t67 251t182 182t251 67t251 -67t182 -182t67 -251z" />
<glyph unicode="&#x2212;" horiz-adv-x="750" d="M690 535v-90h-630v90h630z" />
<glyph unicode="&#x2260;" horiz-adv-x="750" d="M690 410v-90h-322l-49 -195h-75l49 195h-233v90h255l40 160h-295v90h317l54 215h75l-54 -215h238v-90h-260l-40 -160h300z" />
<glyph unicode="&#x25fc;" horiz-adv-x="720" d="M0 720h720v-720h-720v720z" />
<glyph unicode="&#xf8ff;" horiz-adv-x="1610" d="M1298 -111q0 -39 -48.5 -70t-102.5 -31q-70 0 -124 8.5t-82.5 18t-85.5 32.5q-63 25 -135.5 110.5t-82.5 133.5l10 15q48 -64 120 -124.5t128 -63.5q8 -1 19.5 10.5t17.5 24.5q2 4 9 2.5t7 -7.5q1 -29 22 -48t50 -19q54 0 95.5 24t57.5 68q11 -10 24.5 -28.5t24 -29 t21.5 -10.5q38 0 38 70q17 -49 17 -86zM543 584q0 -67 -33.5 -108t-82.5 -41t-82.5 41t-33.5 108q0 66 33.5 107t82.5 41t82.5 -41t33.5 -107zM1303 117q-16 10 -40 33t-45 36.5t-44 13.5q-34 0 -91.5 -28.5t-106.5 -66.5q-5 -4 -9 9q-8 26 -2 44q1 2 2 3q92 65 182 106 q22 10 40 1q56 -26 114 -93q8 -9 9 -27t-9 -31zM923 486q-7 -30 -25.5 -48t-40.5 -18t-33.5 18.5t-4.5 47.5q6 29 25 48t41 19q23 0 34 -18.5t4 -48.5zM1148 511l-24 -112h-26l23 112q4 20 -4.5 31t-26.5 11q-20 0 -35 -12q1 3 1 11.5t1 12.5q19 12 42 12q29 0 42.5 -17.5 t6.5 -48.5zM1254 573h41l-5 -23h-40l-23 -107q-5 -23 21 -23q4 0 16 2l-5 -23q-10 -2 -23 -2q-21 0 -30.5 12t-6.5 29l24 112h-34l5 23h34l11 50h26zM1452 554l-20 -17q-13 17 -36 17q-16 0 -26 -7.5t-12 -17.5q-4 -18 19 -25l24 -8q39 -13 31 -51q-4 -22 -23.5 -36.5 t-50.5 -14.5q-36 0 -54 24l20 17q17 -17 39 -17q16 0 27.5 7.5t13.5 19.5q3 19 -20 27l-25 9q-37 13 -29 48q4 20 23 34.5t48 14.5q34 0 51 -24zM1345 692l-12 -27q-14 17 -22 22.5t-20 5.5q-44 0 -100 -38l25 62q10 9 38.5 17.5t42.5 8.5q19 0 48 -51zM610 546h145v38h-145 v167l133 196h-53l-101 -157l-103 157h-52l133 -196v-70q-20 42 -56.5 66t-83.5 24q-70 0 -115.5 -52.5t-45.5 -134.5t45.5 -134.5t115.5 -52.5q46 0 82.5 24t57.5 66v-266h43v165h142v38h-142v122zM150 -281h1311v1312h-746q149 -40 245.5 -164t96.5 -283v-19 q-14 -9 -20 -21l6 29h-27l-37 -174h27l18 87q7 36 31 55q-16 -177 -148 -298.5t-313 -121.5q-155 0 -277.5 92t-166.5 236v-730zM473 1031h-323v-312q34 114 120.5 197t202.5 115zM951 486q9 41 -9.5 66t-51.5 25t-61.5 -25t-37.5 -66q-9 -40 9 -65t51 -25q34 0 62.5 25 t37.5 65zM1480 1050v-1350h-1350v1350h1350z" />
<glyph unicode="&#xfb01;" horiz-adv-x="850" d="M450 1000v-95q-33 10 -61 10q-109 0 -109 -95v-100h165v-95h-165v-625h-110v625h-140v95h140v120q0 69 50.5 119.5t139.5 50.5q54 0 90 -10zM730 720v-720h-110v720h110zM735 1000v-120h-120v120h120z" />
<glyph unicode="&#xfb02;" horiz-adv-x="850" d="M450 1000v-95q-33 10 -61 10q-109 0 -109 -95v-100h165v-95h-165v-625h-110v625h-140v95h140v120q0 69 50.5 119.5t139.5 50.5q54 0 90 -10zM730 1000v-1000h-110v1000h110z" />
</font>
</defs>
</svg>
